<svg width="57" height="56" viewBox="0 0 57 56" fill="none" xmlns="http://www.w3.org/2000/svg">
<rect x="0.5" width="56" height="56" rx="28" fill="url(#paint0_linear_10131_6729)" fill-opacity="0.1"/>
<path d="M31.5247 22.3089V23.1089C31.9692 23.1089 32.3295 22.7507 32.3295 22.3089H31.5247ZM31.5247 15.5086H32.3295C32.3295 15.1293 32.0616 14.8021 31.6879 14.7252L31.5247 15.5086ZM25.4661 15.5086L25.3029 14.7252C24.9292 14.8021 24.6612 15.1293 24.6612 15.5086H25.4661ZM25.4661 22.3089H24.6612C24.6612 22.7507 25.0216 23.1089 25.4661 23.1089V22.3089ZM42.988 27.9443L43.2307 28.7071C43.5954 28.5925 43.8286 28.2387 43.7885 27.8606L42.988 27.9443ZM42.4508 25.3339L41.6791 25.5615L41.6816 25.5693L42.4508 25.3339ZM42.2695 24.7269L43.0412 24.4993C43.0371 24.4855 43.0326 24.4718 43.0276 24.4582L42.2695 24.7269ZM41.1336 22.3057L41.8279 21.901C41.6378 21.5787 41.2485 21.4302 40.8902 21.5431L41.1336 22.3057ZM31.5279 25.3339V26.1339C31.6105 26.1339 31.6925 26.1212 31.7713 26.0964L31.5279 25.3339ZM25.4693 25.3339L25.2248 26.096C25.3038 26.1211 25.3863 26.1339 25.4693 26.1339V25.3339ZM15.8766 22.2926L16.1212 21.5304C15.7628 21.4168 15.373 21.5651 15.1825 21.8876L15.8766 22.2926ZM14.7244 24.7563L13.9655 24.4898C13.9636 24.4954 13.9616 24.5009 13.9598 24.5065L14.7244 24.7563ZM14.5626 25.2458L13.798 24.996C13.7965 25.0003 13.7952 25.0047 13.7938 25.009L14.5626 25.2458ZM14.0124 27.9019L13.212 27.8175C13.1718 28.1943 13.403 28.5474 13.7658 28.6635L14.0124 27.9019ZM23.5987 30.9693L24.2458 31.445C24.4 31.2378 24.4443 30.9695 24.3649 30.7243C24.2855 30.479 24.0921 30.2867 23.8453 30.2078L23.5987 30.9693ZM17.6696 38.9379L17.0224 38.4622C16.7932 38.7703 16.816 39.1967 17.0768 39.479L17.6696 38.9379ZM19.7344 40.7783L19.2578 41.4229C19.2612 41.4254 19.2646 41.4279 19.2681 41.4303L19.7344 40.7783ZM20.1454 41.0687L19.6791 41.7207C19.6829 41.7234 19.6868 41.7261 19.6907 41.7287L20.1454 41.0687ZM22.5565 42.4L22.2331 43.1326C22.5774 43.2827 22.9804 43.176 23.2038 42.8755L22.5565 42.4ZM28.4825 34.4315L29.1294 33.9556C28.9776 33.7517 28.7374 33.6314 28.4822 33.6315C28.227 33.6315 27.9869 33.7519 27.8352 33.9559L28.4825 34.4315ZM34.4148 42.4L33.7678 42.8759C33.9915 43.1765 34.395 43.2829 34.7393 43.1321L34.4148 42.4ZM36.8195 41.0752L37.272 41.7367C37.2777 41.7329 37.2832 41.7291 37.2888 41.7251L36.8195 41.0752ZM37.2402 40.775L37.7096 41.4249L37.717 41.4195L37.2402 40.775ZM39.3018 38.9346L39.8953 39.4749C40.1554 39.1926 40.1779 38.7667 39.9489 38.4589L39.3018 38.9346ZM33.3727 30.966L33.1301 30.2032C32.8822 30.2811 32.6874 30.4732 32.6071 30.719C32.5268 30.9647 32.5709 31.2339 32.7255 31.4417L33.3727 30.966ZM32.3295 22.3089V15.5086H30.7198V22.3089H32.3295ZM31.6879 14.7252C29.5813 14.2916 27.4095 14.2916 25.3029 14.7252L25.6293 16.292C27.5205 15.9027 29.4702 15.9027 31.3615 16.292L31.6879 14.7252ZM24.6612 15.5086V22.3089H26.271V15.5086H24.6612ZM25.4661 23.1089H31.5247V21.5089H25.4661V23.1089ZM43.7885 27.8606C43.6892 26.9234 43.4988 25.9983 43.22 25.0984L41.6816 25.5693C41.9296 26.3701 42.0991 27.1937 42.1876 28.0282L43.7885 27.8606ZM43.2224 25.1063L43.0412 24.4993L41.498 24.9545L41.6791 25.5615L43.2224 25.1063ZM43.0276 24.4582C42.7088 23.5696 42.3071 22.7134 41.8279 21.901L40.4392 22.7103C40.8674 23.4361 41.2264 24.2013 41.5114 24.9956L43.0276 24.4582ZM31.5279 24.5339H25.4693V26.1339H31.5279V24.5339ZM15.1825 21.8876C14.6946 22.7136 14.2871 23.5851 13.9655 24.4898L15.4834 25.0227C15.7708 24.2141 16.135 23.4355 16.5707 22.6976L15.1825 21.8876ZM13.9598 24.5065L13.798 24.996L15.3273 25.4955L15.4891 25.006L13.9598 24.5065ZM13.7938 25.009C13.5087 25.9236 13.3138 26.8644 13.212 27.8175L14.8128 27.9863C14.9036 27.1365 15.0773 26.2978 15.3314 25.4825L13.7938 25.009ZM17.0768 39.479C17.7396 40.1963 18.47 40.8474 19.2578 41.4229L20.211 40.1336C19.5075 39.6197 18.8549 39.038 18.2624 38.3967L17.0768 39.479ZM19.2681 41.4303L19.6791 41.7207L20.6118 40.4167L20.2007 40.1262L19.2681 41.4303ZM19.6907 41.7287C20.4932 42.2749 21.3442 42.7448 22.2331 43.1326L22.88 41.6675C22.0833 41.3199 21.32 40.8985 20.6002 40.4086L19.6907 41.7287ZM34.7393 43.1321C35.6237 42.7449 36.4713 42.2779 37.272 41.7367L36.3669 40.4136C35.6469 40.9002 34.8849 41.3199 34.0903 41.6679L34.7393 43.1321ZM37.2888 41.7251L37.7096 41.4249L36.7708 40.1251L36.3501 40.4253L37.2888 41.7251ZM37.717 41.4195C38.5042 40.8441 39.2338 40.1928 39.8953 39.4749L38.7082 38.3943C38.1173 39.0355 37.4659 39.617 36.7634 40.1305L37.717 41.4195ZM25.7139 24.5717L16.1212 21.5304L15.632 23.0548L25.2248 26.096L25.7139 24.5717ZM40.8902 21.5431L31.2846 24.5713L31.7713 26.0964L41.3769 23.0683L40.8902 21.5431ZM33.6153 31.7288L43.2307 28.7071L42.7454 27.1815L33.1301 30.2032L33.6153 31.7288ZM39.9489 38.4589L34.0198 30.4903L32.7255 31.4417L38.6547 39.4103L39.9489 38.4589ZM27.8354 34.9073L33.7678 42.8759L35.0618 41.9242L29.1294 33.9556L27.8354 34.9073ZM23.2038 42.8755L29.1297 34.907L27.8352 33.9559L21.9093 41.9245L23.2038 42.8755ZM22.9516 30.4936L17.0224 38.4622L18.3167 39.4135L24.2458 31.445L22.9516 30.4936ZM13.7658 28.6635L23.3521 31.7308L23.8453 30.2078L14.2591 27.1404L13.7658 28.6635Z" fill="url(#paint1_linear_10131_6729)"/>
<defs>
<linearGradient id="paint0_linear_10131_6729" x1="28.5" y1="0" x2="28.5" y2="56.9553" gradientUnits="userSpaceOnUse">
<stop stop-color="#220065"/>
<stop offset="1" stop-color="#1A25FF"/>
</linearGradient>
<linearGradient id="paint1_linear_10131_6729" x1="28.5002" y1="14.4" x2="28.5002" y2="43.6914" gradientUnits="userSpaceOnUse">
<stop stop-color="#220065"/>
<stop offset="1" stop-color="#1A25FF"/>
</linearGradient>
</defs>
</svg>
