<svg width="186" height="256" viewBox="0 0 186 256" fill="none" xmlns="http://www.w3.org/2000/svg">
<g opacity="0.05">
<path d="M20.0669 74.396C32.1633 59.0865 50.7489 49.2582 70.0275 46.8011C72.9886 46.4231 76.0127 46.2341 79.0368 46.2341C84.833 14.9221 113.877 -10.4677 145.693 -12.0428C177.509 -13.6178 208.884 8.8109 217.704 39.4299C242.968 38.9259 267.98 52.8493 280.895 74.522C293.811 96.1947 294.126 124.861 281.714 146.785C269.303 168.71 244.543 183.201 219.279 183.264C219.279 174.38 219.216 165.497 219.216 156.614C242.086 155.984 262.562 135.256 262.94 112.386C263.381 89.5165 243.661 68.0958 220.854 66.5838C219.468 77.6721 215.436 88.4455 209.262 97.8328C201.828 93.0446 194.331 88.2564 186.896 83.4683C195.906 69.1038 195.843 49.6362 186.833 35.3348C177.824 21.0333 160.246 12.591 143.425 14.5441C126.603 16.4971 111.483 28.5935 105.876 44.5961C105.12 46.7381 104.553 49.1322 105.435 51.2113C106.443 53.6053 109.089 54.8654 111.42 55.9994C119.862 60.2206 127.296 66.5207 132.841 74.144C125.784 79.7512 118.728 85.2954 111.609 90.9025C99.0715 75.215 75.3827 69.7339 57.2381 78.3651C39.0935 86.9964 28.3832 108.858 32.6673 128.452C36.9515 148.045 55.7891 163.481 75.8867 163.796C75.8867 172.805 75.8867 181.814 75.8867 190.824C56.7971 190.761 37.8965 182.633 24.7291 168.773C10.5536 153.842 3.68641 132.862 5.51347 112.449C6.77351 98.8408 11.5617 85.2324 20.0669 74.396Z" fill="white"/>
<path d="M192.643 136.851C187.676 126.918 169.051 117.812 160.359 114.501H151.668L151.668 218.801C171.534 217.56 198.851 149.268 192.643 136.851Z" fill="white"/>
<path d="M150.169 229.33L151.312 229.907L152.454 229.33L154.51 228.291C154.513 228.289 154.516 228.288 154.519 228.286C182.82 214.252 201.462 185.686 204.126 154.458L204.127 154.446L204.128 154.435L205.683 134.002L205.839 131.947L203.86 131.376L200.231 130.328L199.886 130.228H199.866C199.814 130.21 199.752 130.188 199.681 130.162C199.343 130.035 198.846 129.829 198.231 129.535C197 128.946 195.343 128.027 193.577 126.727C190.046 124.126 186.196 120.088 184.327 114.22L183.301 110.591L182.78 108.747H180.864L121.759 108.747H119.843L119.322 110.591L118.423 113.769C118.3 113.967 118.185 114.186 118.095 114.359C118.008 114.529 117.908 114.729 117.804 114.938C117.784 114.976 117.765 115.015 117.745 115.054C117.617 115.311 117.474 115.595 117.314 115.906C116.674 117.145 115.75 118.81 114.456 120.605C111.873 124.185 107.869 128.208 101.805 130.348L98.2446 131.376L96.2138 131.962L96.4272 134.065L98.4969 154.457C100.647 185.733 119.844 214.273 148.104 228.287C148.107 228.288 148.11 228.289 148.113 228.291L150.169 229.33ZM113.915 152.995L113.915 152.986L113.914 152.978L113.02 142.593C122.252 137.421 127.717 129.589 130.561 124.292L172.067 124.292C177.122 133.586 184.779 139.119 189.614 142.009L188.708 152.987L188.708 152.995C186.738 177.881 172.685 200.309 151.326 212.627C130.408 200.292 115.883 177.847 113.915 152.995Z" fill="white" stroke="white" stroke-width="5.066"/>
</g>
</svg>
